<?xml version="1.0" standalone="no"?><!DOCTYPE svg PUBLIC "-//W3C//DTD SVG 1.1//EN" "http://www.w3.org/Graphics/SVG/1.1/DTD/svg11.dtd"><svg t="1585398414372" class="icon" viewBox="0 0 1024 1024" version="1.1" xmlns="http://www.w3.org/2000/svg" p-id="3022" xmlns:xlink="http://www.w3.org/1999/xlink" width="200" height="200"><defs><style type="text/css"></style></defs><path d="M965.973333 317.44c-85.333333-58.026667-283.306667 13.653333-351.573333 40.96l112.64-68.266667c3.413333-3.413333 6.826667-6.826667 6.826667-10.24L785.066667 95.573333l47.786666-47.786666c6.826667-6.826667 6.826667-17.066667 0-23.893334s-17.066667-6.826667-23.893333 0l-51.2 51.2c-3.413333 0-6.826667 3.413333-6.826667 6.826667l-47.786666 180.906667L580.266667 337.92v-3.413333c13.653333-17.066667 17.066667-37.546667 17.066666-61.44 0-30.72-23.893333-75.093333-68.266666-81.92V136.533333c0-10.24-6.826667-17.066667-17.066667-17.066666s-17.066667 6.826667-17.066667 17.066666v54.613334c-44.373333 10.24-68.266667 51.2-68.266666 81.92 0 23.893333 6.826667 44.373333 17.066666 61.44v3.413333L320.853333 262.826667 273.066667 98.986667c0-3.413333 0-3.413333-3.413334-6.826667L218.453333 23.893333C211.626667 17.066667 201.386667 13.653333 194.56 20.48s-10.24 17.066667-3.413333 23.893333L238.933333 109.226667l51.2 167.253333c0 3.413333 3.413333 6.826667 6.826667 10.24l109.226667 68.266667c-68.266667-27.306667-262.826667-98.986667-348.16-44.373334-30.72 20.48-44.373333 51.2-44.373334 92.16 0 44.373333 17.066667 75.093333 47.786667 98.986667 30.72 20.48 71.68 27.306667 116.053333 27.306667 92.16 0 194.56-34.133333 221.866667-40.96l3.413333 10.24-102.4 34.133333c-6.826667 3.413333-10.24 6.826667-10.24 13.653333-3.413333 71.68-37.546667 256-119.466666 256-10.24 0-17.066667 6.826667-17.066667 17.066667s6.826667 17.066667 17.066667 17.066667c119.466667 0 146.773333-218.453333 153.6-276.48l88.746666-30.72 3.413334 20.48c-58.026667 34.133333-126.293333 249.173333-126.293334 303.786666 0 47.786667-61.44 105.813333-92.16 122.88-6.826667 3.413333-10.24 13.653333-6.826666 23.893334 3.413333 6.826667 10.24 10.24 13.653333 10.24 3.413333 0 6.826667 0 6.826667-3.413334 37.546667-20.48 112.64-85.333333 112.64-150.186666 0-54.613333 61.44-221.866667 98.986666-266.24l3.413334 10.24c-3.413333 37.546667-20.48 252.586667 37.546666 317.44 13.653333 13.653333 30.72 20.48 47.786667 20.48s34.133333-6.826667 47.786667-20.48c61.44-68.266667 40.96-283.306667 37.546666-317.44l3.413334-10.24c37.546667 44.373333 98.986667 211.626667 98.986666 266.24 0 64.853333 75.093333 133.12 112.64 150.186666 3.413333 0 6.826667 3.413333 6.826667 3.413334 6.826667 0 13.653333-3.413333 13.653333-10.24 3.413333-6.826667 0-17.066667-6.826666-23.893334-30.72-17.066667-92.16-75.093333-92.16-122.88 0-54.613333-68.266667-269.653333-126.293334-303.786666l3.413334-20.48 88.746666 30.72c6.826667 58.026667 34.133333 276.48 153.6 276.48 10.24 0 17.066667-6.826667 17.066667-17.066667s-6.826667-17.066667-17.066667-17.066667c-81.92 0-116.053333-184.32-119.466666-256 0-6.826667-3.413333-13.653333-10.24-13.653333l-102.4-34.133333 3.413333-10.24c27.306667 10.24 129.706667 40.96 221.866667 40.96 44.373333 0 88.746667-6.826667 119.466666-30.72 30.72-20.48 44.373333-51.2 44.373334-92.16-3.413333-40.96-17.066667-71.68-44.373334-88.746667z" fill="#1890ff" p-id="3023"></path></svg>